<?xml version="1.0" standalone="no"?>
<!DOCTYPE svg PUBLIC "-//W3C//DTD SVG 20010904//EN"
 "http://www.w3.org/TR/2001/REC-SVG-20010904/DTD/svg10.dtd">
<svg version="1.0" xmlns="http://www.w3.org/2000/svg"
 width="532.000000pt" height="330.000000pt" viewBox="0 0 532.000000 330.000000"
 preserveAspectRatio="xMidYMid meet">

<g transform="translate(0.000000,330.000000) scale(0.100000,-0.100000)"
fill="#fff" stroke="none">
<path d="M547 3123 c-15 -87 -27 -161 -27 -165 0 -5 11 -8 25 -8 43 0 59 -39
52 -125 -8 -94 -271 -1671 -297 -1783 -26 -108 -52 -156 -100 -187 -22 -14
-44 -25 -50 -25 -5 0 -10 -3 -10 -7 0 -4 -12 -74 -26 -156 -15 -81 -24 -151
-21 -154 4 -3 48 13 99 35 128 56 426 173 523 206 44 14 85 30 91 34 6 4 59
177 119 385 l108 378 -34 29 c-19 16 -36 29 -39 30 -3 0 -27 -62 -53 -138 -98
-280 -187 -414 -312 -474 -49 -23 -105 -37 -105 -25 0 1 29 193 65 425 36 233
65 426 65 428 0 2 17 4 39 4 43 0 56 -11 65 -57 7 -29 -8 -208 -21 -262 -6
-23 -4 -23 33 -17 21 4 43 12 48 16 8 8 145 972 146 1023 0 12 -8 17 -27 17
-16 0 -33 -4 -39 -8 -6 -4 -19 -52 -28 -107 -29 -172 -56 -236 -108 -254 -43
-15 -48 -14 -48 12 0 52 115 773 124 779 20 14 81 8 112 -11 58 -35 85 -118
107 -325 l12 -120 48 60 49 59 -6 155 c-3 85 -9 230 -12 323 l-7 167 -267 0
-266 0 -27 -157z"/>
<path d="M1286 3253 c-12 -62 -28 -234 -22 -248 3 -8 14 -15 25 -15 40 0 51
-26 51 -116 0 -104 -155 -1538 -175 -1612 -18 -72 -39 -100 -89 -122 l-43 -18
-12 -109 c-6 -59 -14 -122 -17 -139 l-6 -31 154 39 c84 21 161 38 170 38 19 0
24 21 33 130 3 41 8 92 11 112 5 34 4 37 -23 40 -43 5 -55 38 -48 138 9 120
133 1376 142 1425 l6 40 8 -30 c4 -16 10 -318 13 -670 3 -352 9 -754 13 -892
l6 -253 27 0 c15 0 32 6 37 13 10 13 118 592 239 1282 75 428 89 503 95 510 7
6 -1 -175 -26 -570 -58 -905 -57 -898 -117 -928 l-36 -18 -6 -102 c-4 -56 -10
-115 -13 -131 l-5 -29 43 6 c24 3 114 13 199 23 85 9 158 20 161 23 4 3 10 63
14 133 l7 128 -34 0 c-64 0 -73 15 -76 137 -3 109 63 1422 74 1484 12 62 31
88 70 95 19 4 37 12 39 18 2 6 5 64 7 129 l3 117 -159 -2 -160 -3 -28 -165
c-112 -652 -180 -1041 -189 -1075 -9 -30 -13 -36 -20 -23 -5 8 -12 297 -15
642 l-7 626 -158 0 -157 0 -6 -27z"/>
<path d="M2267 3183 c-11 -160 -11 -163 17 -163 13 0 34 -9 47 -19 22 -18 24
-27 27 -133 5 -164 -36 -1437 -47 -1474 -17 -59 -30 -73 -74 -81 l-42 -9 -3
-133 -3 -133 48 6 c26 3 130 8 231 12 l182 6 0 128 0 128 -44 6 c-82 13 -81 7
-81 350 l0 301 76 6 c87 7 133 26 181 75 156 155 191 592 77 951 -41 127 -97
209 -168 246 -54 26 -58 27 -236 27 l-182 0 -6 -97z m376 -223 c75 -65 110
-240 89 -438 -15 -140 -26 -175 -68 -217 -30 -31 -41 -35 -84 -35 l-50 0 0
238 c0 132 3 294 7 360 l6 122 33 0 c23 0 44 -10 67 -30z"/>
<path d="M2990 3150 l0 -130 24 0 c14 0 37 -10 51 -23 24 -20 27 -31 35 -132
12 -150 43 -1286 39 -1408 -4 -89 -6 -101 -28 -118 -13 -10 -36 -19 -52 -19
l-30 0 3 -132 3 -133 30 -2 c291 -19 383 -25 398 -29 20 -6 21 21 11 173 l-7
90 -43 11 c-83 22 -82 16 -119 892 -35 824 -36 806 36 823 l37 8 -5 87 c-2 48
-6 106 -9 130 l-5 42 -185 0 -184 0 0 -130z"/>
<path d="M3451 3218 c1 -35 4 -94 8 -133 l6 -70 34 -5 c50 -7 68 -44 81 -170
18 -183 90 -1300 90 -1410 0 -128 -10 -150 -70 -150 l-39 0 4 -48 c3 -26 7
-85 11 -132 l5 -86 210 -32 c115 -18 215 -35 222 -38 10 -4 11 19 1 123 -7 71
-13 133 -13 140 -1 6 -14 14 -31 18 -47 10 -77 55 -89 132 -9 57 -51 516 -51
560 0 8 12 13 30 13 25 0 30 -5 39 -37 5 -21 55 -213 110 -428 55 -214 110
-426 123 -469 l23 -79 149 -37 148 -37 -5 36 c-4 20 -11 84 -18 142 l-11 105
-50 18 c-54 19 -74 44 -108 134 -29 76 -180 631 -180 661 0 13 13 45 29 70 58
90 66 136 66 356 0 170 -4 217 -23 315 -48 238 -124 425 -209 521 -63 69 -102
79 -320 79 l-173 0 1 -62z m382 -252 c99 -41 157 -220 157 -485 0 -208 -19
-251 -111 -258 -30 -2 -59 0 -65 4 -7 5 -22 143 -38 348 -14 187 -29 355 -32
373 -5 30 -3 32 26 32 17 0 45 -6 63 -14z"/>
<path d="M4222 3138 c9 -79 17 -144 18 -145 0 -2 11 -3 25 -3 34 0 71 -38 84
-86 29 -101 213 -1539 215 -1672 1 -115 -4 -125 -64 -120 l-36 3 13 -115 c21
-185 0 -161 213 -234 144 -49 425 -154 516 -192 17 -7 25 235 18 507 l-7 235
-58 65 -58 64 -1 -58 c0 -104 -21 -251 -43 -307 -25 -61 -71 -100 -120 -100
-17 0 -54 8 -84 17 -46 14 -53 20 -58 47 -6 36 -115 794 -115 801 0 3 14 5 31
5 41 0 80 -43 103 -112 12 -38 55 -255 56 -285 0 -5 90 -30 90 -25 0 10 -172
1087 -174 1088 0 1 -18 4 -39 7 l-39 6 9 -72 c14 -120 10 -246 -7 -257 -13 -8
-80 -14 -80 -7 0 1 -25 173 -55 382 -30 209 -55 386 -55 393 0 16 62 16 103
-1 37 -16 94 -76 130 -138 27 -46 115 -263 137 -336 7 -23 17 -40 22 -37 4 3
19 26 32 52 l23 47 -115 363 -115 362 -267 0 -266 0 18 -142z"/>
<path d="M2470 934 c-377 -12 -685 -43 -1035 -105 -162 -28 -238 -47 -440
-105 -175 -50 -347 -106 -495 -162 -194 -73 -390 -154 -390 -161 0 -4 20 -56
43 -117 24 -60 59 -148 77 -196 30 -80 35 -88 59 -88 15 0 31 4 37 9 5 4 25
14 44 21 19 6 111 39 205 71 347 122 618 194 940 249 156 26 255 38 575 71
171 17 819 24 980 10 74 -6 191 -16 260 -22 69 -5 136 -11 150 -14 14 -2 50
-6 80 -10 61 -6 154 -20 245 -36 33 -6 71 -13 85 -14 58 -8 307 -69 454 -111
226 -65 629 -202 634 -216 2 -4 16 -8 31 -8 26 0 31 8 108 202 78 198 79 203
59 213 -12 6 -77 33 -146 59 -69 27 -154 60 -190 74 -192 74 -466 162 -676
217 -263 68 -711 136 -1024 154 -190 12 -531 19 -670 15z m102 -88 c20 -15 38
-58 38 -92 0 -22 -3 -24 -55 -24 l-55 0 0 35 c0 19 -5 35 -10 35 -7 0 -10 -40
-8 -112 2 -62 7 -113 12 -113 5 0 10 18 10 40 l1 40 50 0 c45 0 50 -2 53 -24
7 -44 -7 -87 -33 -101 -14 -7 -52 -14 -85 -14 -51 -1 -63 3 -84 24 -23 23 -25
33 -27 140 -3 128 1 152 34 168 31 15 138 14 159 -2z m242 2 c33 -14 39 -48
34 -188 -4 -133 -9 -139 -112 -140 -58 0 -74 4 -93 22 -22 20 -23 29 -23 149
0 126 0 128 26 148 31 24 125 29 168 9z m192 -3 c6 -2 14 -26 18 -54 6 -48 23
-72 23 -33 0 82 0 82 44 82 l41 0 -7 -157 c-4 -87 -9 -161 -12 -165 -5 -10
-94 -10 -109 0 -6 4 -19 45 -28 92 -10 47 -19 87 -22 89 -2 2 -4 -37 -4 -87
l0 -92 -46 0 -46 0 7 163 c4 89 9 165 12 170 4 6 100 1 129 -8z m-838 -25 c34
-32 30 -82 -10 -114 -18 -14 -28 -26 -21 -26 6 0 15 5 18 10 3 6 21 10 40 10
l33 0 7 -65 c4 -36 11 -65 16 -65 5 0 9 -13 9 -29 0 -34 -27 -49 -58 -32 -13
7 -22 7 -29 0 -6 -6 -40 -11 -77 -11 -90 -2 -108 16 -114 108 -3 46 -1 69 8
74 9 6 9 13 1 28 -21 39 -14 88 17 111 38 29 129 29 160 1z m1165 8 c15 -7 27
-16 27 -20 0 -5 7 -8 15 -8 8 0 15 5 15 11 0 11 60 9 178 -7 39 -6 42 -8 42
-36 0 -22 -4 -29 -17 -27 -49 4 -53 1 -53 -47 0 -40 -9 -111 -26 -199 -3 -19
-9 -20 -51 -15 -55 6 -51 -12 -32 163 7 59 10 109 8 111 -2 2 -16 6 -31 10
-24 6 -28 3 -28 -16 0 -40 -14 -51 -59 -46 l-42 4 41 -36 c36 -31 40 -40 40
-81 0 -71 -23 -94 -96 -94 -107 0 -136 25 -126 108 4 36 5 37 45 37 l40 0 -37
33 c-53 46 -56 116 -7 154 21 16 120 16 154 1z m-1519 -51 c9 -12 17 -38 18
-57 l3 -35 -52 -3 c-47 -3 -53 -1 -54 17 -2 37 -4 41 -14 41 -12 0 -12 -2 -1
-59 l8 -43 42 5 c22 3 48 8 57 12 14 5 19 -7 29 -80 7 -47 10 -89 7 -92 -3 -3
-19 -6 -34 -8 -15 -1 -37 -6 -48 -11 -33 -14 -103 -11 -120 7 -9 9 -23 53 -31
99 -8 46 -16 86 -19 88 -9 9 -4 -61 9 -133 7 -38 10 -73 7 -76 -3 -4 -29 -10
-57 -14 l-52 -7 -24 54 c-14 29 -32 69 -41 88 l-16 35 5 -35 c3 -19 10 -48 15
-64 17 -54 11 -86 -17 -96 -14 -6 -31 -10 -37 -10 -7 0 -23 57 -41 148 -16 81
-31 157 -33 168 -4 18 1 23 31 28 20 3 51 9 70 12 35 6 40 -1 78 -101 7 -20 0
56 -8 87 -6 20 23 38 60 38 22 0 26 -5 27 -32 1 -18 5 -44 9 -58 8 -23 8 -23
9 8 2 76 34 101 128 102 65 0 74 -3 87 -23z m1927 4 c70 -11 99 -34 100 -79 0
-30 2 -33 9 -17 5 11 9 32 9 48 1 24 5 27 34 27 18 0 41 -6 51 -13 20 -14 19
-30 -4 -152 -21 -114 -23 -135 -11 -135 6 0 11 12 11 28 0 15 4 43 9 62 11 39
19 84 28 148 6 46 12 49 74 30 31 -9 38 -15 34 -32 -59 -295 -60 -296 -142
-296 -53 0 -86 12 -111 40 -13 15 -12 66 4 174 l7 48 -25 -23 c-20 -20 -22
-26 -11 -40 10 -13 11 -30 1 -92 l-13 -77 -35 6 c-19 3 -41 7 -47 9 -16 5 -17
47 -2 99 7 25 7 42 1 48 -7 7 -15 -15 -23 -65 l-13 -76 -45 6 c-25 3 -47 7
-49 9 -3 2 12 132 34 288 l7 48 36 -7 c20 -4 57 -10 82 -14z m-2437 -59 c3 -5
10 -37 16 -73 7 -35 16 -86 22 -114 27 -138 28 -131 -7 -144 -46 -16 -64 -14
-69 12 -3 12 -19 85 -35 162 -17 76 -27 142 -23 146 6 6 26 11 79 18 6 0 14
-3 17 -7z m2962 -38 c14 -9 31 -29 39 -43 14 -25 14 -25 15 -3 0 18 6 22 34
22 19 0 38 -4 41 -10 3 -5 16 -10 28 -10 24 0 93 -22 103 -33 4 -4 20 -7 35
-7 16 0 39 -5 52 -11 l24 -11 -19 -67 c-10 -36 -30 -102 -43 -147 -14 -44 -25
-85 -25 -92 0 -19 -14 -21 -58 -10 -45 11 -46 17 -22 88 15 44 50 180 50 195
0 10 -10 15 -28 15 -27 0 -30 -4 -45 -65 -56 -215 -47 -195 -81 -195 -17 0
-39 7 -48 14 -18 13 -18 17 6 106 8 30 22 83 29 117 l15 61 -29 4 c-26 4 -30
1 -38 -26 -8 -32 -8 -32 -75 -19 -27 5 -28 8 -22 44 9 59 -11 47 -22 -13 -6
-29 -17 -79 -25 -111 -8 -31 -11 -60 -6 -62 10 -7 15 2 23 41 7 29 8 30 49 24
l42 -5 -2 -45 c-2 -50 -36 -90 -76 -90 -31 0 -95 24 -119 44 -18 16 -19 25
-13 84 4 36 11 77 16 90 5 13 9 35 9 50 0 15 9 42 20 60 19 30 23 32 80 32 39
0 69 -6 86 -16z m-3089 -11 c10 -10 25 -45 32 -78 8 -33 17 -76 22 -95 22 -87
2 -126 -76 -150 -22 -6 -52 -15 -67 -20 -18 -5 -30 -4 -36 4 -9 11 -31 90 -58
206 -29 127 -30 115 13 128 83 25 144 27 170 5z m-283 -105 c17 -60 24 -91 44
-168 8 -35 15 -38 59 -25 18 6 23 2 29 -21 8 -32 -14 -54 -57 -54 -15 0 -31
-4 -34 -10 -7 -11 -76 -14 -73 -2 3 8 -8 48 -54 211 -16 57 -26 107 -21 112 7
6 23 10 79 18 6 0 19 -27 28 -61z m-113 -28 c10 -30 19 -65 19 -77 0 -12 5
-25 10 -28 6 -3 10 -17 10 -31 0 -14 4 -33 9 -42 5 -9 12 -36 16 -59 6 -39 5
-43 -14 -43 -11 0 -23 -4 -26 -10 -3 -5 -14 -10 -24 -10 -13 0 -23 19 -40 78
-13 42 -34 113 -47 156 -13 44 -24 83 -24 88 0 10 60 37 79 35 8 -1 22 -27 32
-57z m-112 -27 c17 -63 28 -98 46 -156 16 -51 19 -105 7 -123 -14 -22 -83 -54
-116 -54 -42 0 -60 21 -86 96 -11 32 -23 66 -26 74 -3 8 -5 15 -4 15 0 0 -9
27 -20 59 -11 33 -20 62 -20 66 0 7 27 19 71 33 13 4 25 -21 59 -126 24 -73
47 -136 52 -142 11 -12 10 21 -1 43 -9 17 -59 177 -68 217 -3 15 3 23 24 32
56 22 68 17 82 -34z m4098 35 c49 -21 73 -49 74 -87 l1 -36 15 38 c15 36 35
47 48 27 3 -5 16 -10 28 -10 45 -1 58 -22 52 -86 l-5 -59 17 50 c19 54 43 67
77 40 18 -13 17 -16 -9 -92 -15 -43 -35 -97 -46 -120 -10 -24 -19 -47 -19 -52
0 -5 -7 -24 -15 -44 l-14 -35 -46 21 c-45 21 -45 21 -45 71 1 28 5 71 10 96
12 64 5 61 -16 -7 -10 -32 -24 -73 -31 -90 -12 -31 -15 -32 -41 -21 -42 18
-43 21 -22 78 22 60 24 74 11 66 -4 -3 -11 -18 -14 -33 -3 -16 -16 -39 -28
-51 -19 -21 -27 -23 -68 -17 -57 9 -98 37 -105 73 -4 15 3 57 15 97 11 39 23
81 26 95 6 35 25 73 43 87 19 16 71 16 107 1z m-4328 -97 c25 -25 36 -82 22
-110 -10 -17 -9 -21 4 -21 40 0 75 -132 43 -164 -18 -16 -104 -56 -130 -59
-22 -2 -19 -7 -107 219 -17 44 -31 85 -31 91 0 9 11 16 70 41 60 26 105 27
129 3z"/>
<path d="M2720 690 c0 -62 4 -110 9 -110 6 0 11 50 13 110 2 83 0 110 -9 110
-10 0 -13 -29 -13 -110z"/>
<path d="M2070 761 c0 -20 13 -35 23 -25 7 8 -4 44 -14 44 -5 0 -9 -9 -9 -19z"/>
<path d="M2080 592 c0 -27 3 -32 25 -32 14 0 25 2 25 5 0 3 -11 18 -25 33
l-25 27 0 -33z"/>
<path d="M3250 756 c0 -36 17 -41 22 -6 3 20 0 30 -9 30 -7 0 -13 -11 -13 -24z"/>
<path d="M3238 590 c-3 -20 0 -30 9 -30 7 0 13 11 13 24 0 36 -17 41 -22 6z"/>
<path d="M1730 550 c0 -18 5 -30 13 -30 9 0 12 10 9 30 -2 17 -8 30 -13 30 -5
0 -9 -13 -9 -30z"/>
<path d="M3717 693 c-5 -27 -2 -41 7 -32 11 10 17 59 8 59 -5 0 -12 -12 -15
-27z"/>
<path d="M1080 618 c0 -8 4 -28 9 -44 5 -16 15 -56 22 -89 15 -73 28 -102 29
-64 0 34 -39 191 -51 204 -6 5 -9 3 -9 -7z"/>
<path d="M4728 475 c-6 -11 -43 -127 -51 -160 -3 -11 -8 -28 -12 -37 -4 -10
-3 -18 2 -18 6 0 16 19 23 43 7 23 21 68 32 100 17 51 21 97 6 72z"/>
<path d="M4827 413 c-4 -3 -7 -16 -7 -28 0 -11 -5 -26 -11 -32 -6 -6 -9 -19
-7 -29 3 -12 10 0 22 34 17 50 18 71 3 55z"/>
<path d="M356 375 c10 -46 23 -65 24 -34 0 14 -7 34 -15 45 -14 18 -15 17 -9
-11z"/>
<path d="M400 255 c0 -17 24 -75 31 -75 5 0 3 15 -3 33 -11 32 -28 58 -28 42z"/>
</g>
</svg>
